HIERARCHY
ROOT Bip001_Pelvis
{
  OFFSET 34.4345 95.6767 -26.8758
  CHANNELS 6 Xposition Yposition Zposition Zrotation Xrotation Yrotation
  JOINT Bip001_Spine
  {
    OFFSET 1.4188e-005 10.2191 -0.0116013
    CHANNELS 3 Zrotation Xrotation Yrotation
    JOINT Bip001_L_Thigh
    {
      OFFSET 11.0458 -10.2192 0.0116197
      CHANNELS 3 Zrotation Xrotation Yrotation
      JOINT Bip001_L_Calf
      {
        OFFSET -0.707118 -44.0221 0.360014
        CHANNELS 3 Zrotation Xrotation Yrotation
        JOINT Bip001_L_Foot
        {
          OFFSET -0.651902 -40.5938 -3.56146
          CHANNELS 3 Zrotation Xrotation Yrotation
          JOINT Bip001_L_Toe0
          {
            OFFSET 0.0530839 -10.2181 13.1504
            CHANNELS 3 Zrotation Xrotation Yrotation
            End Site
            {
              OFFSET -1.02532e-005 0 7.55606
            }
          }
        }
      }
    }
    JOINT Bip001_R_Thigh
    {
      OFFSET -11.0458 -10.2191 0.0115893
      CHANNELS 3 Zrotation Xrotation Yrotation
      JOINT Bip001_R_Calf
      {
        OFFSET 0.706994 -44.0221 0.35984
        CHANNELS 3 Zrotation Xrotation Yrotation
        JOINT Bip001_R_Foot
        {
          OFFSET 0.651786 -40.5938 -3.5613
          CHANNELS 3 Zrotation Xrotation Yrotation
          JOINT Bip001_R_Toe0
          {
            OFFSET -0.0531479 -10.2181 13.1504
            CHANNELS 3 Zrotation Xrotation Yrotation
            End Site
            {
              OFFSET -1.02894e-005 0 7.55606
            }
          }
        }
      }
    }
    JOINT Bip001_Spine1
    {
      OFFSET 1.87041e-005 14.5736 1.08638
      CHANNELS 3 Zrotation Xrotation Yrotation
      JOINT Bip001_Spine2
      {
        OFFSET 2.24614e-005 14.5058 -1.69078
        CHANNELS 3 Zrotation Xrotation Yrotation
        JOINT Bip001_Neck
        {
          OFFSET 2.20278e-005 15.3945 -0.489414
          CHANNELS 3 Zrotation Xrotation Yrotation
          JOINT Bip001_L_Clavicle
          {
            OFFSET 6.06036 -0.000579998 0.00836775
            CHANNELS 3 Zrotation Xrotation Yrotation
            JOINT Bip001_L_UpperArm
            {
              OFFSET 11.5509 -0.0600302 0.00193952
              CHANNELS 3 Zrotation Xrotation Yrotation
              JOINT Bip001_L_Forearm
              {
                OFFSET 25.9523 0.0806089 -2.15551
                CHANNELS 3 Zrotation Xrotation Yrotation
                JOINT Bip001_L_Hand
                {
                  OFFSET 32.2475 0.153767 1.63968
                  CHANNELS 3 Zrotation Xrotation Yrotation
                  JOINT Bip001_L_Finger0
                  {
                    OFFSET 6.04639 -2.20976 5.90322
                    CHANNELS 3 Zrotation Xrotation Yrotation
                    End Site
                    {
                      OFFSET 4.22375 -1.43895 0.606485
                    }
                  }
                  JOINT Bip001_L_Finger1
                  {
                    OFFSET 11.0826 -0.704819 -0.198153
                    CHANNELS 3 Zrotation Xrotation Yrotation
                    End Site
                    {
                      OFFSET 6.20027 -0.397518 -0.0787166
                    }
                  }
                }
              }
            }
          }
          JOINT Bip001_R_Clavicle
          {
            OFFSET -6.06037 -0.000563197 0.00835105
            CHANNELS 3 Zrotation Xrotation Yrotation
            JOINT Bip001_R_UpperArm
            {
              OFFSET -11.5509 -0.0599978 0.00190698
              CHANNELS 3 Zrotation Xrotation Yrotation
              JOINT Bip001_R_Forearm
              {
                OFFSET -25.9523 0.0806822 -2.15589
                CHANNELS 3 Zrotation Xrotation Yrotation
                JOINT Bip001_R_Hand
                {
                  OFFSET -32.2475 0.153859 1.63989
                  CHANNELS 3 Zrotation Xrotation Yrotation
                  JOINT Bip001_R_Finger0
                  {
                    OFFSET -6.04641 -2.20976 5.90317
                    CHANNELS 3 Zrotation Xrotation Yrotation
                    End Site
                    {
                      OFFSET -4.22376 -1.43895 0.60647
                    }
                  }
                  JOINT Bip001_R_Finger1
                  {
                    OFFSET -11.0826 -0.704794 -0.198182
                    CHANNELS 3 Zrotation Xrotation Yrotation
                    End Site
                    {
                      OFFSET -6.20028 -0.397504 -0.0787333
                    }
                  }
                }
              }
            }
          }
          JOINT Bip001_Head
          {
            OFFSET 1.09673e-005 11.2744 2.05948
            CHANNELS 3 Zrotation Xrotation Yrotation
            End Site
            {
              OFFSET 2.89576e-005 20.8808 -2.77728e-005
            }
          }
        }
      }
    }
  }
}
MOTION
Frames:	16
Frame Time:	0.04
32.6296 95.7602 -32.8084 0.722385 -1.29298 -10.73 0.200618 2.84711 -1.07742 4.67506 -1.20746 13.8607 -0.0984537 7.15352 5.65268 0.549026 -3.68874 -0.00858604 0.54891 -4.69099 0.544026 -4.73373 -8.58084 2.62688 0.868586 13.5134 0.18269 -4.18936 -8.90664 3.46204 2.25981 -7.82423 2.59125 0.455722 5.69515 -2.17028 0.455808 5.6951 -2.16995 0.242166 -2.07506 0.169912 -23.3727 4.57223 -4.66163 -47.5794 40.3286 -3.21927 12.8184 -8.05052 -27.8958 8.97714 0.210373 -3.90406 -6.36111e-015 3.18055e-015 -0 -3.18055e-015 6.36111e-015 -1.59028e-015 26.8685 10.4928 21.3636 61.5067 38.3885 -12.4365 -25.5281 17.5108 14.8332 4.93678 -4.45396 2.08984 -3.97569e-016 0 1.98785e-016 0 0 -1.98785e-016 0.427359 2.16391 0.129296 
32.7201 95.8342 -32.673 0.659007 -1.31186 -11.13 0.223302 2.84711 -1.06864 4.33577 -0.61403 14.2564 0.16903 6.07486 5.77734 1.26016 -2.67942 -0.0291912 1.15226 -5.29473 -0.0872707 -4.89735 -8.06174 2.73917 1.00473 12.4533 -0.134795 -3.60137 -8.5136 4.04237 2.0647 -7.18682 2.34855 0.502415 5.69522 -2.15184 0.50263 5.69516 -2.15225 0.162023 -1.91596 0.415871 -23.3448 4.61578 -5.24041 -47.3891 40.0741 -3.81227 13.1545 -6.72166 -27.8844 8.82459 0.345575 -3.88423 -0 0 1.59028e-015 0 0 -1.59028e-015 27.0181 10.2484 21.2126 63.0407 35.8594 -12.7723 -24.3237 16.8057 14.1267 11.2409 -3.49785 2.60719 1.59028e-015 -3.18055e-015 3.97569e-016 8.82782e-032 -6.36111e-015 7.95139e-016 -0.22586 1.81262 0.50414 
32.7981 95.9122 -32.5137 0.613773 -1.35558 -11.365 0.226833 2.8472 -0.973867 4.02674 -0.0442585 14.5904 0.630942 5.26921 5.76999 -0.151119 -3.12801 0.0180038 0.726274 -4.56224 0.227668 -4.97157 -7.59399 2.5284 0.959196 11.6974 -0.0918226 -3.35576 -8.18883 4.35922 1.99238 -6.95263 2.27085 0.502853 5.69015 -1.96261 0.502033 5.69011 -1.96256 0.130557 -1.87045 0.557013 -23.2459 4.69101 -5.61839 -47.4927 39.5981 -3.99941 13.358 -6.03798 -28.3339 8.6286 0.476844 -4.05959 6.36111e-015 6.36111e-015 -4.77083e-015 8.82782e-032 3.18056e-015 -1.59028e-015 26.2688 9.54105 19.8725 64.1445 31.5851 -12.3729 -24.7405 17.1904 14.7571 12.1821 -3.35431 4.72677 -3.97569e-016 -6.36111e-015 1.98785e-015 3.97569e-016 -6.36111e-015 1.59028e-015 -0.584915 1.45469 0.715601 
32.85 95.9244 -32.3989 0.491339 -1.34759 -11.5999 0.225593 2.80773 -0.891631 4.03773 0.280777 15.7969 0.749629 4.95561 4.7938 -0.240501 -3.14545 0.0176045 0.747331 -4.58372 0.164004 -4.89262 -7.46156 2.31907 0.885787 11.5794 -0.0697193 -3.29714 -8.12174 4.6857 1.97499 -6.91733 2.27165 0.494474 5.61159 -1.79764 0.496207 5.61158 -1.79757 0.202415 -1.59877 0.841079 -23.2015 4.49982 -5.82941 -48.2316 39.4508 -3.46523 13.4609 -6.48088 -29.1793 8.80088 0.601679 -4.16313 -3.18055e-015 -3.18055e-015 -0 3.18055e-015 -6.36111e-015 -1.59028e-015 25.7297 8.68894 18.5887 65.4437 30.8966 -13.4076 -24.475 12.4487 15.7947 8.44448 -6.49986 5.26178 9.93923e-017 -6.36111e-015 2.98177e-016 9.93923e-017 -9.54167e-015 1.98785e-016 -0.830957 1.0266 1.06974 
32.9211 95.9038 -32.272 0.449742 -1.52951 -11.4693 0.239364 2.77297 -0.909973 4.00666 0.485927 16.1866 0.754581 5.11508 4.41794 -0.223917 -3.36077 0.0167364 0.88279 -4.70248 0.0123326 -4.92763 -7.22298 2.33108 0.833951 11.7539 0.0034834 -3.43564 -8.24516 4.57224 2.00056 -7.00307 2.3088 0.527814 5.5417 -1.83488 0.527814 5.54172 -1.83487 0.0231537 -1.08669 1.18914 -23.0874 4.07752 -6.03029 -49.459 38.897 -2.16555 13.6468 -6.66101 -30.2853 9.31479 0.625852 -4.27537 -3.18055e-015 0 -3.18055e-015 -3.18055e-015 -3.18056e-015 -1.59028e-015 25.7335 7.95919 18.2742 66.2679 31.815 -14.8392 -23.9656 6.53685 16.4008 5.91633 -8.42169 6.66037 -3.97569e-016 1.90833e-014 7.95139e-016 3.97569e-016 1.27222e-014 -0 -0.811398 0.472342 1.35325 
32.99 95.8573 -32.1613 0.428248 -1.798 -11.2693 0.242392 2.75535 -0.929069 3.92007 0.655261 15.7026 0.78033 5.39951 4.60566 0.0582299 -3.49404 0.0154687 0.956563 -4.89952 0.0133641 -4.97753 -7.02699 2.31921 0.775793 12.1692 0.117579 -3.67841 -8.49457 4.42097 2.05237 -7.15345 2.34429 0.529856 5.50627 -1.87299 0.529854 5.50626 -1.87298 -0.105146 -0.742691 1.44761 -23.0549 3.78675 -6.11784 -50.4591 38.5125 -0.770497 13.6545 -6.44126 -31.1447 9.75729 0.214362 -4.72602 3.18055e-015 -6.36111e-015 -1.59028e-015 6.36111e-015 -6.36111e-015 -4.77083e-015 25.8245 7.49512 18.1013 65.942 32.5666 -15.5974 -24.9568 7.77112 16.8556 2.52137 -8.99847 7.69909 -1.59028e-015 -6.36111e-015 7.95139e-016 -2.38542e-015 -9.54167e-015 1.59028e-015 -0.887938 0.202771 1.59439 
33.0016 95.8351 -32.0132 0.145654 -2.11407 -11.1008 0.280965 2.77312 -0.890142 4.21579 0.816649 15.816 0.677154 5.98169 4.26997 0.112891 -3.91526 0.0138813 0.986886 -4.95047 -0.01396 -4.80931 -6.5358 1.9292 0.667288 12.1599 0.234682 -3.77653 -8.54424 4.53804 2.10672 -7.32005 2.39321 0.607162 5.54136 -1.79709 0.606676 5.5414 -1.79711 0.0135659 -0.709266 1.41728 -23.1199 3.72639 -6.05128 -51.192 38.6486 0.281853 13.7722 -5.99044 -31.2408 9.60083 0.239995 -4.78651 -3.18055e-015 -6.36111e-015 -3.18055e-015 -3.18055e-015 -9.54167e-015 -1.59028e-015 25.5173 7.47628 18.2279 64.8538 32.7764 -15.2728 -25.9966 10.9935 16.6582 -0.00235774 -8.59224 7.47307 3.18055e-015 -3.18055e-015 -1.59028e-015 3.18055e-015 -3.18056e-015 -1.59028e-015 -1.07425 0.158302 1.62757 
33.0355 95.8294 -31.8537 0.0568144 -2.29306 -10.7585 0.281246 2.78999 -0.856364 4.29403 1.02879 15.8297 0.54312 5.95789 3.68758 0.816311 -3.5921 -0.00030715 1.11793 -5.35501 -0.0689805 -4.77369 -6.15113 1.63744 0.629908 12.0825 0.270069 -3.93907 -8.58321 4.39087 2.14663 -7.44052 2.4264 0.604404 5.57548 -1.72948 0.604893 5.57549 -1.72946 0.0265019 -0.91634 1.33449 -23.1488 3.89329 -5.9213 -51.4637 39.3445 0.959349 13.8545 -5.77957 -30.5494 8.7225 0.126248 -4.54095 -6.36111e-015 9.54166e-015 -1.59028e-015 -6.36111e-015 6.36111e-015 -0 25.4525 7.78237 18.5147 63.937 33.5732 -15.1536 -26.5907 11.5609 15.7818 -1.04885 -8.30851 7.1463 1.59028e-015 -3.18055e-015 -0 1.59028e-015 3.18056e-015 1.59028e-015 -0.984243 0.187406 1.53448 
33.0703 95.7935 -31.6904 0.0953965 -2.32172 -10.3554 0.253819 2.78387 -0.781796 4.38741 0.933091 16.3353 0.533635 6.36531 2.86284 0.364608 -4.28834 0.0130651 0.995384 -5.00487 -0.00273296 -4.76815 -6.06126 1.60617 0.579088 12.3435 0.319205 -4.22421 -8.74464 3.96222 2.232 -7.6916 2.49519 0.541785 5.56401 -1.57864 0.541785 5.56401 -1.57864 -0.0253285 -1.55793 1.23521 -23.0841 4.45587 -5.63136 -51.6649 40.26 1.44576 13.9517 -5.66876 -29.2939 8.26686 0.450852 -4.29936 -3.18055e-015 3.18055e-015 -0 -3.18055e-015 0 -1.59028e-015 25.8191 8.62003 18.7876 62.4793 30.9074 -15.65 -29.5441 14.773 16.7986 -2.9593 -7.54916 8.67104 4.77083e-015 -3.18055e-015 -1.59028e-015 6.36111e-015 -6.36111e-015 -1.59028e-015 -0.819029 0.626766 1.38433 
33.0537 95.7366 -31.6206 -0.0305448 -2.09076 -9.31342 0.256941 2.7303 -0.780599 4.87789 0.2124 15.0511 0.0320449 7.22452 2.81527 1.97779 -3.8194 -0.0209156 1.3785 -5.89141 -0.25763 -4.52648 -5.98715 1.59775 0.602315 12.397 0.240446 -4.63933 -8.76393 3.05061 2.33359 -7.99853 2.58908 0.552089 5.45681 -1.57615 0.552088 5.45682 -1.57615 0.0547706 -1.94183 1.12817 -22.9431 4.724 -5.30583 -52.1698 41.3636 2.30083 14.176 -5.94379 -28.2986 7.95882 0.413814 -4.28946 -3.18055e-015 0 -0 0 0 -0 26.1381 9.01645 18.5146 59.6156 21.2862 -16.5167 -34.6244 19.0642 23.3691 -10.3993 -7.56958 8.16833 3.18055e-015 0 1.59028e-015 3.18055e-015 -3.18056e-015 4.77083e-015 -0.927165 0.732783 1.32765 
33.029 95.6812 -31.4951 -0.144265 -2.10966 -7.68848 0.260525 2.71069 -0.845019 5.546 -0.554145 13.7852 -0.512853 8.66467 2.67057 1.4255 -4.96833 0.00631267 1.06764 -5.37866 -0.00247331 -4.28046 -5.55252 1.30004 0.534224 12.4425 0.247 -5.22924 -8.81094 1.90616 2.43934 -8.3075 2.67496 0.564932 5.41686 -1.70501 0.563503 5.41686 -1.70526 0.47115 -2.44873 1.14573 -23.0972 5.14241 -5.0007 -52.428 40.8627 2.77394 14.3907 -4.88759 -27.4423 7.4297 0.823933 -3.87018 0 0 -1.59028e-015 3.18055e-015 0 -0 25.7314 8.94309 16.6867 57.4514 10.8579 -18.1436 -40.7788 15.0781 32.8637 -15.5651 -6.69291 8.64989 -9.54166e-015 3.18055e-015 6.36111e-015 -6.36111e-015 6.36111e-015 9.54166e-015 -1.78978 1.55597 1.66544 
33.0262 95.5808 -31.2761 -0.198286 -2.30545 -5.77255 0.224658 2.69702 -0.952686 6.11862 -1.21397 12.602 -1.06596 10.0683 2.15826 1.87793 -5.51096 0.0118331 1.14458 -5.37287 -0.0846254 -4.04688 -5.14041 0.634772 0.350847 13.0682 0.332298 -5.86001 -9.06385 0.854644 2.56224 -8.65465 2.77868 0.495839 5.38996 -1.91845 0.495468 5.38995 -1.91884 0.870797 -1.97189 1.26137 -23.2075 4.6508 -5.02013 -52.8306 39.4654 3.74262 15.2539 -3.01021 -27.4394 6.9376 1.14299 -3.58413 -3.18055e-015 3.18055e-015 -0 -6.36111e-015 3.18056e-015 3.18055e-015 24.9372 7.86719 15.1323 53.6505 -2.07015 -20.9721 -52.7468 17.057 50.1601 -25.6853 -8.28469 6.56362 6.36111e-015 1.59028e-015 3.18055e-015 3.18055e-015 0 -0 -2.59374 1.46326 2.08014 
33.0223 95.4589 -30.9458 -0.391668 -2.70882 -3.83772 0.199504 2.71284 -0.983093 6.70555 -1.85513 13.566 -0.922995 11.9201 -0.561941 2.08571 -6.2384 0.0214233 1.20655 -5.2671 -0.258274 -3.67929 -4.41644 0.773612 0.384385 13.4509 0.181766 -6.70333 -9.11707 -1.20091 2.60679 -9.1172 3.31393 0.44521 5.42184 -1.9802 0.445795 5.4219 -1.97957 1.21437 -1.46438 1.45275 -23.5187 4.13157 -4.93262 -53.0559 38.7314 5.12013 16.1597 -1.79876 -28.2091 7.32563 0.973743 -3.71291 -0 0 1.59028e-015 0 0 -0 23.1851 6.72188 13.9509 47.1621 -18.0214 -24.8428 -61.9805 14.1716 71.1846 -31.4616 -9.09628 6.86752 7.95139e-016 -3.57812e-015 -0 -7.95139e-016 -3.57813e-015 -0 -3.55322 1.43622 2.59783 
33.0992 95.3919 -30.7468 -0.39516 -2.61095 -2.09553 0.143852 2.64554 -0.861638 6.86608 -2.73244 11.7381 -0.986739 13.0077 -0.469697 2.30888 -6.46951 0.0239351 1.29284 -5.20437 -0.421204 -3.56117 -4.15328 0.0468771 0.373166 13.6976 -0.0789041 -7.13397 -9.18098 -2.18196 2.63889 -9.37015 3.54696 0.328163 5.28859 -1.73259 0.328115 5.28858 -1.73265 1.05152 -1.54461 1.74647 -23.368 4.33137 -5.21151 -53.1451 38.1928 5.9633 16.2111 -1.70521 -28.4334 8.75918 0.570475 -4.03972 -6.36111e-015 0 -0 -3.18055e-015 -6.36111e-015 1.59028e-015 22.421 6.31693 12.9898 39.9873 -27.4536 -28.3471 -64.2451 7.40125 85.475 -36.6545 -9.256 6.19035 -3.18055e-015 -5.56597e-015 -3.18055e-015 -1.59028e-015 -5.96354e-015 -3.18055e-015 -3.8049 2.38464 2.91889 
33.2474 95.2842 -30.6648 -0.253228 -2.18602 -0.266236 0.0961646 2.47631 -0.599342 6.75136 -4.01775 10.5129 -0.808934 14.2468 -1.36196 2.80625 -6.66036 0.0267607 1.27175 -5.27317 -0.396046 -3.76843 -4.26999 -0.687414 0.675667 14.2204 -0.401913 -7.41193 -9.41904 -3.23787 2.67849 -9.47678 3.57822 0.218587 4.95148 -1.20454 0.218587 4.9515 -1.20454 0.773535 -1.21631 1.86534 -23.4433 4.14001 -5.56184 -52.7863 38.1216 6.20915 15.724 -2.09652 -28.6676 9.97012 1.20711 -3.61385 -6.36111e-015 -3.18055e-015 -0 3.18055e-015 3.18056e-015 -0 22.0133 6.01638 13.4783 33.3567 -30.4806 -31.2512 -61.2397 -1.37016 93.2055 -39.4731 -8.06208 4.84365 -3.18055e-015 -3.18055e-015 -3.18055e-015 -3.18055e-015 -3.97569e-015 -0 -4.24949 2.64971 3.07674 
33.2567 95.2409 -30.5631 -0.855606 -2.17343 1.95995 0.156464 2.4726 -0.274046 7.41592 -5.30371 8.94189 -0.743188 15.8513 -2.27677 2.76439 -7.27236 0.0491715 1.2253 -5.1429 -0.36752 -3.20249 -3.31519 -1.76214 0.8924 13.2084 -0.622889 -7.65896 -8.97515 -4.31161 2.70842 -9.53797 3.56752 0.313013 4.94444 -0.555531 0.319074 4.94437 -0.555069 0.943518 -3.28119 1.62118 -24.1467 6.04724 -4.712 -51.7721 37.4032 5.96112 15.6916 -3.07454 -29.3199 7.28986 0.78145 -3.8402 -6.36111e-015 -6.36111e-015 -0 -6.36111e-015 -3.18056e-015 -0 21.9258 8.42808 14.3291 25.6415 -34.0695 -32.1295 -57.7298 -7.11349 98.4321 -42.0353 -5.232 3.73627 -9.54166e-015 1.59028e-015 -0 -3.18055e-015 3.18056e-015 -0 -4.73458 5.28571 3.07602 
